<?xml version="1.0" standalone="no"?>
<!DOCTYPE svg PUBLIC "-//W3C//DTD SVG 20010904//EN"
 "http://www.w3.org/TR/2001/REC-SVG-20010904/DTD/svg10.dtd">
<svg version="1.0" xmlns="http://www.w3.org/2000/svg"
 width="512.000000pt" height="512.000000pt" viewBox="0 0 512.000000 512.000000"
 preserveAspectRatio="xMidYMid meet">

<g transform="translate(0.000000,512.000000) scale(0.100000,-0.100000)"
fill="#000000" stroke="none">
<path d="M3982 5085 c-35 -29 -47 -70 -33 -108 6 -15 51 -59 101 -98 78 -62
88 -73 77 -88 -6 -9 -61 -81 -120 -159 l-108 -142 -130 100 c-113 86 -136 100
-169 100 -21 0 -47 -8 -58 -17 -41 -34 -1090 -1426 -1095 -1452 -8 -40 16 -83
67 -120 25 -19 46 -36 46 -38 0 -2 -40 -57 -88 -121 -110 -145 -115 -155 -107
-199 5 -26 19 -44 60 -76 33 -25 51 -46 47 -53 -4 -7 -83 -114 -177 -238 -154
-205 -172 -226 -195 -221 -113 23 -205 28 -292 17 -51 -6 -93 -10 -94 -9 -2 1
-86 313 -188 692 -102 379 -189 697 -192 707 -5 17 5 18 141 18 107 0 153 4
173 14 32 18 425 412 441 443 6 12 11 32 11 45 0 36 -419 763 -451 782 -24 14
-83 16 -452 16 -417 0 -425 0 -451 -21 -19 -15 -109 -185 -286 -539 l-259
-517 -97 -1249 c-53 -687 -99 -1281 -101 -1321 -7 -105 18 -219 74 -333 39
-79 61 -109 133 -181 72 -73 101 -94 180 -132 60 -29 126 -52 180 -63 71 -14
103 -27 190 -79 370 -221 792 -362 1245 -416 142 -17 521 -18 650 -1 110 14
233 41 420 92 107 29 134 33 255 33 114 1 150 -3 235 -25 189 -50 342 -60 515
-34 659 100 1123 713 1026 1356 -98 648 -725 1112 -1374 1016 -257 -38 -478
-146 -666 -326 l-81 -78 -65 10 c-130 19 -346 -7 -473 -57 -41 -16 -41 -16
-99 26 l-38 27 151 198 c83 110 157 207 164 218 13 18 16 17 66 -20 61 -45
113 -51 150 -19 12 11 62 73 111 138 l89 118 30 -23 c86 -64 113 -71 161 -40
29 19 1084 1402 1100 1441 5 14 6 37 3 53 -7 30 -28 50 -183 168 l-92 71 120
159 121 159 90 -70 c72 -55 98 -69 126 -69 45 0 69 14 88 50 20 40 19 72 -5
103 -20 25 -430 341 -499 384 -47 30 -82 29 -119 -2z m-2273 -698 l164 -288
-159 -160 -159 -159 -343 0 -344 0 -34 -34 c-22 -22 -34 -44 -34 -60 0 -34 24
-81 47 -92 10 -5 76 -11 148 -14 l130 -5 212 -790 c126 -469 220 -800 231
-815 30 -40 68 -45 148 -20 79 24 247 39 258 22 3 -6 -29 -57 -72 -114 -44
-57 -84 -113 -90 -125 -44 -83 52 -176 135 -130 11 7 69 75 127 152 59 77 112
141 119 143 7 1 35 -16 62 -38 118 -94 115 -94 262 -36 182 71 401 73 542 3
153 -75 270 -255 271 -414 0 -55 17 -91 51 -109 45 -23 87 -18 120 15 25 26
29 37 29 88 -1 197 -115 416 -282 539 l-57 42 52 45 c351 300 834 327 1227 68
81 -53 211 -182 270 -267 181 -262 226 -571 126 -866 -108 -317 -375 -563
-711 -655 -89 -24 -118 -27 -255 -27 -145 0 -164 2 -285 34 -119 31 -142 34
-275 34 -155 0 -198 -7 -385 -59 -234 -66 -441 -91 -695 -82 -523 18 -1028
170 -1444 433 -75 47 -111 64 -137 64 -106 0 -240 61 -329 150 -106 106 -158
240 -147 380 4 41 49 625 101 1296 l95 1222 230 461 231 461 342 -2 342 -3
165 -288z m2150 -117 c127 -96 231 -179 231 -183 0 -11 -129 -177 -137 -177
-15 0 -589 173 -596 179 -8 8 253 362 265 358 4 -1 111 -81 237 -177z m-330
-445 c156 -47 286 -87 289 -90 3 -2 -6 -19 -20 -37 -13 -18 -161 -213 -328
-433 -167 -220 -304 -401 -305 -403 -3 -4 -463 346 -470 358 -10 16 517 701
535 695 8 -2 143 -43 299 -90z m-719 -949 c36 -27 67 -51 68 -52 7 -4 -110
-154 -120 -154 -5 0 -42 26 -82 57 l-74 57 60 78 c37 49 64 76 71 72 7 -4 41
-30 77 -58z"/>
</g>
</svg>
